<svg viewBox="0 0 512 512" xmlns="http://www.w3.org/2000/svg" role="img" aria-label="Argus"><title>Argus</title>
<rect width="512" height="512" rx="112" fill="#0A1424"/>
<path d="M 96 256 Q 256 132 416 256" fill="none" stroke="#8AE7F4" stroke-width="24" stroke-linecap="round"/>
<path d="M 96 256 Q 256 380 416 256" fill="none" stroke="#8AE7F4" stroke-width="24" stroke-linecap="round"/>
<circle cx="256" cy="256" r="62" fill="none" stroke="#8AE7F4" stroke-width="14"/>
<g stroke="#38E0F0" stroke-width="11" stroke-linecap="round"><line x1="292" y1="256" x2="270" y2="269" transform="rotate(0 256 256)"/><line x1="292" y1="256" x2="270" y2="269" transform="rotate(60 256 256)"/><line x1="292" y1="256" x2="270" y2="269" transform="rotate(120 256 256)"/><line x1="292" y1="256" x2="270" y2="269" transform="rotate(180 256 256)"/><line x1="292" y1="256" x2="270" y2="269" transform="rotate(240 256 256)"/><line x1="292" y1="256" x2="270" y2="269" transform="rotate(300 256 256)"/></g>
<polygon points="278,256 267,275 245,275 234,256 245,237 267,237" fill="#38E0F0"/>
</svg>