<svg viewBox="0 0 512 512" xmlns="http://www.w3.org/2000/svg" role="img" aria-label="Argus"><title>Argus</title>
<g stroke="#0A1424" stroke-width="7" stroke-linecap="round" stroke-dasharray="1 17"><line x1="256" y1="106" x2="256" y2="24"/><line x1="256" y1="406" x2="256" y2="488"/><line x1="406" y1="256" x2="488" y2="256"/><line x1="106" y1="256" x2="24" y2="256"/><line x1="150" y1="150" x2="92" y2="92"/><line x1="150" y1="362" x2="92" y2="424"/><line x1="362" y1="362" x2="424" y2="424"/></g>
<g stroke="#E84C7F" stroke-width="7" stroke-linecap="round" stroke-dasharray="1 15"><line x1="362" y1="150" x2="416" y2="96"/></g>
<g stroke="#E84C7F" stroke-width="8" stroke-linecap="round"><line x1="414" y1="74" x2="438" y2="98"/><line x1="438" y1="74" x2="414" y2="98"/></g>
<g transform="translate(181 126)"><path d="M -13 0 Q 0 -8 13 0 Q 0 8 -13 0 Z" fill="none" stroke="#0A1424" stroke-width="3.5"/><circle r="3.3" fill="#0A1424"/></g><g transform="translate(217 111)"><path d="M -13 0 Q 0 -8 13 0 Q 0 8 -13 0 Z" fill="none" stroke="#0A1424" stroke-width="3.5"/><circle r="3.3" fill="#0A1424"/></g><g transform="translate(256 106)"><path d="M -13 0 Q 0 -8 13 0 Q 0 8 -13 0 Z" fill="none" stroke="#0A1424" stroke-width="3.5"/><circle r="3.3" fill="#0A1424"/></g><g transform="translate(295 111)"><path d="M -13 0 Q 0 -8 13 0 Q 0 8 -13 0 Z" fill="none" stroke="#0A1424" stroke-width="3.5"/><circle r="3.3" fill="#0A1424"/></g><g transform="translate(331 126)"><path d="M -13 0 Q 0 -8 13 0 Q 0 8 -13 0 Z" fill="none" stroke="#0A1424" stroke-width="3.5"/><circle r="3.3" fill="#0A1424"/></g><g transform="translate(331 386)"><path d="M -13 0 Q 0 -8 13 0 Q 0 8 -13 0 Z" fill="none" stroke="#0A1424" stroke-width="3.5"/><circle r="3.3" fill="#0A1424"/></g><g transform="translate(295 401)"><path d="M -13 0 Q 0 -8 13 0 Q 0 8 -13 0 Z" fill="none" stroke="#0A1424" stroke-width="3.5"/><circle r="3.3" fill="#0A1424"/></g><g transform="translate(256 406)"><path d="M -13 0 Q 0 -8 13 0 Q 0 8 -13 0 Z" fill="none" stroke="#0A1424" stroke-width="3.5"/><circle r="3.3" fill="#0A1424"/></g><g transform="translate(217 401)"><path d="M -13 0 Q 0 -8 13 0 Q 0 8 -13 0 Z" fill="none" stroke="#0A1424" stroke-width="3.5"/><circle r="3.3" fill="#0A1424"/></g><g transform="translate(181 386)"><path d="M -13 0 Q 0 -8 13 0 Q 0 8 -13 0 Z" fill="none" stroke="#0A1424" stroke-width="3.5"/><circle r="3.3" fill="#0A1424"/></g>
<path d="M 120 256 Q 256 150 392 256" fill="none" stroke="#0A1424" stroke-width="20" stroke-linecap="round"/>
<path d="M 120 256 Q 256 362 392 256" fill="none" stroke="#0A1424" stroke-width="20" stroke-linecap="round"/>
<circle cx="256" cy="256" r="58" fill="none" stroke="#0A1424" stroke-width="8"/>
<g stroke="#0A1424" stroke-width="6" stroke-linecap="round"><line x1="292" y1="256" x2="270" y2="269" transform="rotate(0 256 256)"/><line x1="292" y1="256" x2="270" y2="269" transform="rotate(60 256 256)"/><line x1="292" y1="256" x2="270" y2="269" transform="rotate(120 256 256)"/><line x1="292" y1="256" x2="270" y2="269" transform="rotate(180 256 256)"/><line x1="292" y1="256" x2="270" y2="269" transform="rotate(240 256 256)"/><line x1="292" y1="256" x2="270" y2="269" transform="rotate(300 256 256)"/></g>
<polygon points="276,256 266,273 246,273 236,256 246,239 266,239" fill="#0A1424"/>
</svg>